# xmcd CD database file
#
# Track frame offsets:
#	150
#	15678
#	30744
#	52217
#	64829
#	76227
#	97939
#	109936
#	119225
#	132571
#	142966
#	153082
#	167477
#	179070
#	191484
#
# Disc length: 2674 seconds
#
# Revision: 0
# Processed by: cddbd v1.5.2PL0 Copyright (c) Steve Scherf et al.
# Submitted via: CDex 1.51
#
DISCID=d20a700f
DTITLE=Esa Kuloniemi - The Legend Of Bicycle Bronson
DYEAR=2006
DGENRE=Blues
TTITLE0=Fais Do-Do pt.1
TTITLE1=Fasi Do-Do pt.2
TTITLE2=Gary, Indiana
TTITLE3=Bicycle Bronson
TTITLE4=Speedway Papi
TTITLE5=The Hitman
TTITLE6=Clean Train
TTITLE7=Oh, My Rose
TTITLE8=Beehive In Budjonnovka
TTITLE9=Moses The Magnificent
TTITLE10=Lullaby For X
TTITLE11=One, Two, Three, Four, Five, Six, Seven (I'm In Heaven) [remix]
TTITLE12=The Hitman (refrain)
TTITLE13=Bombay, Speedway
TTITLE14=Gumbostrand
EXTD=YEAR: 2006
EXTT0=
EXTT1=
EXTT2=
EXTT3=
EXTT4=
EXTT5=
EXTT6=
EXTT7=
EXTT8=
EXTT9=
EXTT10=
EXTT11=
EXTT12=
EXTT13=
EXTT14=
PLAYORDER=
